# xmcd CD database file
#
# Track frame offsets:
#	150
#	13428
#	25028
#	40966
#	55140
#	70433
#	88523
#	103607
#	115474
#	128742
#	142746
#	158332
#	170036
#	184344
#	195788
#	216051
#
# Disc length: 3172 seconds
#
# Revision: 1
# Processed by: cddbd v1.5.2PL0 Copyright (c) Steve Scherf et al.
# Submitted via: CDex 1.51
#
DISCID=d70c6210
DTITLE=Various Artist - Urban Cowboys
DYEAR=2000
DGENRE=Country
TTITLE0=01 - Walkin' The Country - The Ranch
TTITLE1=02 - Watcha Gonna Do With A Cowboy - Chris Ledoux and Garth Brooks
TTITLE2=03 - Only Here For A Little While - Billy Dean
TTITLE3=04 - I Left Something Turned On At Home - Trace Adkins
TTITLE4=05 - Nowhere U.S.A - Dean Miller
TTITLE5=06 - Feed Jake - Pirates Of The Mississippi
TTITLE6=07 - Your Love Amazes Me - John Berry
TTITLE7=08 - I'd Love You To Love Me - Emilio
TTITLE8=09 - Shoe String - Mel McDaniel
TTITLE9=10 - Boogie and Beethoven - Larry Gatlin and Gatlin Brothers
TTITLE10=11 - Tricky Moon - George Ducas
TTITLE11=12 - Why Baby Why - Palomino Road
TTITLE12=13 - Cowboys Likes A Little Rock'n Roll - Chris Ledoux and Charlie Daniels
TTITLE13=14 - B-B-B-Burnin' Up With Love - Eddie Rabbit
TTITLE14=15 - Two Teardrops - Steve Wariner
TTITLE15=16 - Everything That Glitters (Is Not Gold) - Dan Seals
EXTD=YEAR: 2000
EXTT0=
EXTT1=
EXTT2=
EXTT3=
EXTT4=
EXTT5=
EXTT6=
EXTT7=
EXTT8=
EXTT9=
EXTT10=
EXTT11=
EXTT12=
EXTT13=
EXTT14=
EXTT15=
PLAYORDER=
